<?xml version="1.0" encoding="UTF-8"?>
<svg version="1.1" xmlns="http://www.w3.org/2000/svg" width="3000" height="3000">
<path d="M0 0 C2.01471012 -0.00074183 4.02942012 -0.00192272 6.04412976 -0.0034965 C11.54014953 -0.0065371 17.03615052 -0.00341434 22.53216888 0.00078164 C28.52644655 0.00423925 34.52072247 0.00184061 40.51500052 0.00020415 C51.00698396 -0.00186299 61.49896242 -0.00027011 71.99094486 0.00384235 C83.23938717 0.0082318 94.48782676 0.01041363 105.73626995 0.00994015 C106.44867345 0.00991146 107.16107694 0.00988276 107.89506842 0.0098532 C111.52808576 0.00969681 115.16110309 0.00950486 118.79412042 0.00930037 C145.04091376 0.00789554 171.28770467 0.0113144 197.53449726 0.01731777 C223.51611436 0.02324625 249.49773041 0.02709407 275.47934818 0.02817059 C276.28713118 0.028205 277.09491417 0.02823941 277.92717543 0.02827486 C285.30535353 0.02858808 292.68353163 0.02887577 300.06170974 0.02913284 C318.40057778 0.02977212 336.73944581 0.03073137 355.07831383 0.03190804 C355.91329702 0.03196135 356.74828022 0.03201467 357.60856593 0.0320696 C398.19602569 0.03468923 438.78348476 0.04099601 479.37094402 0.04760838 C493.45041179 0.0499001 507.52987956 0.05217549 521.60934734 0.05438328 C522.91921586 0.0545887 522.91921586 0.0545887 524.25554636 0.05479828 C564.87345848 0.0611459 605.49137072 0.06486909 646.1092832 0.06791807 C648.74720624 0.06811614 651.38512927 0.06831533 654.0230523 0.06851475 C671.50514799 0.06983457 688.98724369 0.07110921 706.46933939 0.07235361 C741.2524412 0.07482992 776.035543 0.07757159 810.81864478 0.08049566 C812.47499409 0.0806349 814.13134339 0.08077395 815.7876927 0.08091282 C890.32406978 0.08716349 964.86044636 0.09650069 1039.39682293 0.10717869 C1040.443408 0.10732859 1040.443408 0.10732859 1041.51113619 0.10748152 C1076.40426553 0.11248167 1111.29739483 0.11765814 1146.1905241 0.12304783 C1147.48012567 2.69326276 1148.7687596 5.26395516 1150.05684185 7.83493137 C1150.60230294 8.92168046 1150.60230294 8.92168046 1151.15878344 10.03038406 C1153.53999736 14.78561521 1155.8401363 19.55824993 1157.94443035 24.44336033 C1158.24737011 25.1381197 1158.55030987 25.83287907 1158.86242962 26.54869175 C1159.83193499 28.77928316 1160.79344958 31.01316781 1161.7530241 33.24804783 C1162.09201733 34.03484928 1162.43101055 34.82165073 1162.7802763 35.63229465 C1199.10124763 120.06024764 1226.45904028 208.10409916 1264.1905241 618.12304783 C1264.12500347 619.09832432 1264.05948284 620.07360081 1263.99197674 621.07843113 C1257.03152804 723.53843975 1238.48289852 824.41155272 1153.7217741 1062.8164072 C1152.15547384 1066.19873672 1150.60922907 1069.58972796 1149.0655241 1072.98242283 C1137.84494362 1097.53132667 1125.90310773 1121.75127809 1112.74618816 1145.32373142 C1111.0534497 1148.3697043 1109.3828849 1151.42724668 1107.7139616 1154.48632908 C1099.27279726 1169.90243662 1090.37701281 1184.97646421 1081.15390301 1199.93408298 C1079.3784661 1202.81778815 1077.61584583 1205.70877015 1075.85849285 1208.60351658 C1067.05153107 1223.05346774 1057.664428 1237.10560702 1048.1905241 1251.12304783 C1047.64090008 1251.9370908 1047.09127605 1252.75113377 1046.52499676 1253.5898447 C1039.30263212 1264.2615896 1031.78659208 1274.71499489 1024.1905241 1285.12304783 C1023.34119305 1286.28972996 1023.34119305 1286.28972996 1022.47470379 1287.47998142 C1011.86469083 1302.041041 1001.00406562 1316.40634269 989.52255535 1330.29492283 C987.16325452 1333.15611847 984.82898359 1336.03634184 982.49716473 1338.91992283 C976.6131976 1346.19116676 970.6538042 1353.38887385 964.57626629 1360.49902439 C963.13323319 1362.19019004 961.69677593 1363.88679402 960.2608366 1365.58398533 C954.79683215 1372.02332348 949.23555663 1378.34520399 943.46225262 1384.50976658 C940.85526201 1387.29643872 938.30678423 1390.1211737 935.80380535 1393.00195408 C932.19067505 1397.15100323 928.46019296 1401.17881732 924.6905241 1405.18554783 C924.06532879 1405.85392673 923.44013348 1406.52230564 922.79599285 1407.21093845 C919.80058937 1410.40169434 916.77782991 1413.54844307 913.6592741 1416.61914158 C911.37612907 1418.88239474 909.2354972 1421.20001691 907.15536785 1423.65039158 C901.9847807 1429.63731132 896.31130835 1435.15090398 890.71176434 1440.73217869 C888.75756787 1442.68101652 886.80877263 1444.63514055 884.86044598 1446.5898447 C873.54331378 1457.91239551 873.54331378 1457.91239551 867.77035809 1462.75756931 C865.98690686 1464.29903782 864.34070576 1465.94043316 862.6905241 1467.62304783 C859.76585295 1470.59362189 856.7043285 1473.33033902 853.54599285 1476.04882908 C851.17414025 1478.1374754 848.86146935 1480.27852888 846.55185223 1482.43530369 C841.14793547 1487.48058828 835.63830078 1492.28091988 829.8702116 1496.91211033 C827.05799096 1499.23239733 824.37255147 1501.65375917 821.6905241 1504.12304783 C816.36434481 1509.01798817 810.82257757 1513.58678731 805.1905241 1518.12304783 C803.4601949 1519.53829433 801.731046 1520.95498502 800.0030241 1522.37304783 C799.10068035 1523.11039158 798.1983366 1523.84773533 797.2686491 1524.60742283 C795.62509572 1525.95063143 793.98187048 1527.29424515 792.34091473 1528.64062595 C783.76629873 1535.67468903 775.11047273 1542.52857699 766.1905241 1549.12304783 C764.96818826 1550.04231688 763.74689019 1550.96296695 762.5264616 1551.88476658 C752.51700779 1559.44192924 742.39736854 1566.83490458 732.1905241 1574.12304783 C731.45479168 1574.65059666 730.71905926 1575.17814548 729.96103191 1575.72168064 C707.02874438 1592.13056034 683.30362391 1607.51178106 659.1905241 1622.12304783 C658.24257977 1622.70183689 657.29463543 1623.28062595 656.31796551 1623.87695408 C640.17666961 1633.72960319 623.79150825 1643.06861626 607.1905241 1652.12304783 C606.11061199 1652.71521091 605.03069988 1653.307374 603.91806316 1653.91748142 C571.71140801 1671.54939161 538.84908019 1687.7664804 505.12570477 1702.28827 C503.31198601 1703.07065287 501.50067668 1703.85861461 499.68954754 1704.64697361 C420.60481971 1739.06720823 337.68278489 1764.98642371 84.5655241 1804.87304783 C83.742216 1804.93221378 82.91890789 1804.99137974 82.07065105 1805.0523386 C76.4461426 1805.450346 70.81974039 1805.79899605 65.1905241 1806.12304783 C63.98865963 1806.19563313 63.98865963 1806.19563313 62.76251507 1806.26968479 C42.52929588 1807.45829144 22.26301192 1807.32364636 2.0030241 1807.31054783 C1.07977211 1807.31028095 0.15652012 1807.31001408 -0.79470921 1807.30973911 C-28.84406692 1807.29955834 -56.81939534 1807.12523951 -84.8094759 1805.12304783 C-85.71961445 1805.05988377 -86.629753 1804.9967197 -87.5674715 1804.93164158 C-191.25067744 1797.72580778 -293.72289568 1778.64992446 -613.09170246 1651.64013767 C-616.00012631 1650.01662475 -618.91621238 1648.40741983 -621.8329134 1646.79882908 C-636.69565267 1638.57308566 -651.32180708 1629.99196346 -665.8094759 1621.12304783 C-666.97712482 1620.41027683 -666.97712482 1620.41027683 -668.16836262 1619.68310642 C-692.9614614 1604.48121316 -717.15535254 1588.03338919 -740.8094759 1571.12304783 C-741.55713215 1570.59243748 -742.3047884 1570.06182713 -743.0751009 1569.51513767 C-753.86888237 1561.85348029 -764.38035029 1553.88165684 -774.78750324 1545.70410252 C-777.6512515 1543.46483257 -780.54300672 1541.26391152 -783.4344759 1539.06054783 C-795.51923567 1529.77628654 -807.22941527 1520.02631007 -818.8094759 1510.12304783 C-819.36312824 1509.65044529 -819.91678059 1509.17784275 -820.48721027 1508.69091892 C-823.99780547 1505.69370324 -827.50146134 1502.68855578 -831.00039387 1499.67773533 C-832.8312595 1498.10432745 -834.66601653 1496.5355379 -836.50088215 1494.96679783 C-843.19749792 1489.22334681 -849.78416855 1483.3791224 -856.2469759 1477.37304783 C-856.90431721 1476.76412693 -857.56165852 1476.15520603 -858.23891926 1475.52783298 C-859.7831392 1474.08135899 -861.29947324 1472.60520647 -862.8094759 1471.12304783 C-862.8094759 1470.79304783 -862.8094759 1470.46304783 -862.8094759 1470.12304783 C-862.03809916 1470.12264765 -861.26672243 1470.12224746 -860.47197064 1470.12183515 C-776.39729731 1470.07811259 -692.3226264 1470.03066949 -608.24796772 1469.96406651 C-606.98992183 1469.96307094 -605.73187593 1469.96207537 -604.43570744 1469.96104964 C-577.08782105 1469.93938561 -549.73993523 1469.91706252 -522.39204993 1469.89406155 C-509.65237861 1469.88334777 -496.91270717 1469.87276109 -484.17303566 1469.86226314 C-482.15098576 1469.86059622 -480.12893585 1469.85892595 -478.10688594 1469.85725555 C-447.02187075 1469.8316058 -415.93685619 1469.80844464 -384.8518343 1469.79260349 C-384.1850162 1469.79226363 -383.51819811 1469.79192377 -382.8311734 1469.7915736 C-372.0821682 1469.78611037 -361.3331629 1469.7808587 -350.58415759 1469.77563516 C-305.50316052 1469.75372311 -260.42217958 1469.72225852 -215.34119838 1469.6780567 C-209.05278783 1469.67189544 -202.76437718 1469.66584479 -196.47596645 1469.65986156 C-195.23844935 1469.65868068 -194.00093225 1469.6574998 -192.72591464 1469.65628314 C-172.8925576 1469.63764086 -153.05920892 1469.62916115 -133.2258442 1469.62458659 C-113.23379262 1469.61975474 -93.24177257 1469.60396735 -73.24973791 1469.57738217 C-62.43910526 1469.56330067 -51.62852016 1469.553847 -40.81787777 1469.55803967 C20.2520703 1469.72660577 20.2520703 1469.72660577 81.1905241 1466.12304783 C82.00552189 1466.04919758 82.82051968 1465.97534733 83.66021438 1465.89925919 C135.97616412 1461.15814982 188.63423772 1452.51538088 239.1905241 1438.12304783 C240.44581921 1437.76693424 240.44581921 1437.76693424 241.72647381 1437.40362644 C314.90876432 1416.59898685 386.36917323 1389.17220915 452.27353191 1350.80371189 C455.45571078 1348.97025698 458.66041611 1347.18112796 461.8702116 1345.39648533 C477.49268975 1336.68263664 492.42881377 1327.24176471 507.20077801 1317.15625095 C510.69916895 1314.77713942 514.22363489 1312.43978285 517.7542448 1310.10888767 C526.03963596 1304.63446681 534.16917954 1298.97657156 542.1905241 1293.12304783 C542.9241618 1292.58921482 543.65779949 1292.05538181 544.41366863 1291.50537205 C554.83589047 1283.91213084 565.13673101 1276.1983613 575.1905241 1268.12304783 C575.82554852 1267.61419041 576.46057293 1267.10533298 577.11484051 1266.58105564 C586.63205301 1258.94220979 595.97312371 1251.12040639 605.1905241 1243.12304783 C605.92528973 1242.49011814 606.66005535 1241.85718845 607.4170866 1241.20507908 C611.89475485 1237.32627592 616.26215576 1233.32947184 620.61972332 1229.31689548 C623.86785496 1226.32705642 627.14391357 1223.37206705 630.4405241 1220.43554783 C634.09847503 1217.15741608 637.60124245 1213.7755288 641.0108366 1210.24023533 C642.93289849 1208.37328632 644.90116353 1206.62678248 646.92880535 1204.87695408 C651.21609209 1201.15060222 655.24929568 1197.21257631 659.2530241 1193.18554783 C659.92140301 1192.52103611 660.58978191 1191.85652439 661.27841473 1191.17187595 C665.21842107 1187.22421167 668.97362756 1183.17232756 672.59652996 1178.93139744 C674.22623403 1177.08253573 675.93101062 1175.3481169 677.6905241 1173.62304783 C680.70465993 1170.6556946 683.48969743 1167.5495949 686.24911785 1164.34570408 C688.47856471 1161.793279 690.77053792 1159.30417269 693.0655241 1156.81054783 C697.13150018 1152.35267044 700.98378372 1147.77022617 704.77255535 1143.07617283 C707.54554168 1139.68945608 710.39302402 1136.37372322 713.2530241 1133.06054783 C721.60026275 1123.36647517 729.44519297 1113.30088838 737.1905241 1103.12304783 C737.89483562 1102.19830662 737.89483562 1102.19830662 738.61337566 1101.25488377 C763.64492111 1068.32040223 786.56925794 1033.62053734 806.8233366 997.55322361 C808.06207647 995.3513635 809.31185997 993.15627439 810.5655241 990.96289158 C851.11828989 919.55326694 881.42430398 841.67086085 923.4405241 630.68554783 C923.5562225 629.58126942 923.5562225 629.58126942 923.67425823 628.45468235 C926.62682398 599.87138444 927.55304496 571.21137016 927.44847393 542.49367237 C927.44035173 540.13550159 927.43543219 537.77734052 927.43112469 535.41915989 C927.3854099 513.65608236 927.26902841 491.93186115 925.37411785 470.23645115 C925.17629436 467.95924495 924.98782645 465.68136459 924.7998991 463.40332127 C921.41285351 422.86387049 915.40669903 382.95404052 907.1905241 343.12304783 C906.85635011 341.45654951 906.52284767 339.78991613 906.1905241 338.12304783 C819.8115573 338.10590617 733.43259029 338.09000698 647.05362225 338.08070469 C645.13558682 338.0804976 645.13558682 338.0804976 643.1788032 338.08028633 C616.06541818 338.07736623 588.95203314 338.07464672 561.83864807 338.07216815 C548.21793998 338.07092279 534.59723189 338.06963782 520.9765238 338.06831539 C518.92193931 338.06811614 516.86735483 338.06791802 514.81277034 338.06771995 C483.18907453 338.06466132 451.5653791 338.06075506 419.94168377 338.05438328 C419.26216269 338.05424638 418.5826416 338.05410948 417.88252897 338.05396843 C406.92719999 338.05175616 395.97187101 338.04947252 385.01654204 338.04717939 C339.16626432 338.03758377 293.31598747 338.0311922 247.46570865 338.02913284 C241.08431016 338.02884469 234.70291167 338.02851905 228.32151318 338.02817059 C227.06557785 338.02810316 225.80964252 338.02803574 224.51564855 338.02796627 C204.30874445 338.02678513 184.10184256 338.02214862 163.89493936 338.01621579 C143.5740296 338.01032339 123.25312202 338.00808115 102.93221143 338.00954645 C90.86323417 338.0103063 78.7942649 338.0082858 66.72528909 338.00225029 C58.65492079 337.99849064 50.58455771 337.99839103 42.51418905 338.00121602 C37.92116166 338.00272052 33.32814935 338.00268262 28.7351236 337.99816465 C-32.89178578 337.94132084 -87.97225275 346.95249298 -135.8094759 389.12304783 C-136.58033527 389.78304783 -137.35119465 390.44304783 -138.1454134 391.12304783 C-146.28939184 398.11251592 -153.13049785 405.72223143 -159.8094759 414.12304783 C-160.60482746 415.0898447 -161.40017902 416.05664158 -162.21963215 417.05273533 C-195.42085153 458.40956328 -208.07825998 512.58728057 -202.4969759 564.67773533 C-196.25369292 616.98381147 -169.30668203 666.30196344 -127.8876009 699.13476658 C-118.65526811 706.16941185 -108.99334846 712.55463337 -98.8094759 718.12304783 C-98.19604328 718.45997654 -97.58261066 718.79690525 -96.95058918 719.14404392 C-66.15310007 735.82170103 -33.33862408 742.61230677 1.45707989 742.52177525 C3.62010378 742.52722903 5.78312471 742.53398649 7.94614094 742.54191715 C13.82754844 742.55978179 19.70882865 742.55940531 25.59025681 742.55578768 C31.95602072 742.55515977 38.32174339 742.57182167 44.6874876 742.58630466 C55.69590699 742.609021 66.70429385 742.6210681 77.71273518 742.62543392 C89.24770242 742.63005403 100.78263685 742.64088554 112.31758976 742.65986156 C113.39677495 742.66163176 113.39677495 742.66163176 114.49776186 742.66343771 C118.15209723 742.66946383 121.80643241 742.67559946 125.46076753 742.68177722 C151.28807682 742.72524254 177.11538531 742.75500926 202.94272137 742.77661228 C228.02053282 742.79761999 253.09832477 742.82489965 278.1761198 742.86059666 C279.33734034 742.86224587 279.33734034 742.86224587 280.52201988 742.86392841 C288.29691599 742.87497754 296.07181192 742.88615338 303.84670771 742.89742203 C319.68251883 742.92037098 335.51833108 742.94247465 351.3541441 742.96406651 C352.08211525 742.96506012 352.8100864 742.96605374 353.56011728 742.96707747 C402.1035705 743.03323835 450.64704576 743.07963816 499.1905241 743.12304783 C498.71758712 744.56073738 498.24301798 745.99789009 497.76776409 747.43481541 C497.50366426 748.23518726 497.23956444 749.03555912 496.96746159 749.86018467 C496.0319313 752.58495604 494.92868235 755.19155831 493.7295866 757.81054783 C493.26471844 758.82640965 492.79985027 759.84227146 492.3208952 760.88891697 C491.82412273 761.95618015 491.32735027 763.02344334 490.8155241 764.12304783 C490.02975994 765.81578831 490.02975994 765.81578831 489.22812176 767.54272556 C480.7933461 785.53883082 471.6769001 803.23044941 461.1905241 820.12304783 C460.59868328 821.07711521 460.00684246 822.03118259 459.39706707 823.01416111 C451.58434233 835.54370896 443.58201083 847.79030876 434.49716473 859.43554783 C432.4565228 862.0709957 430.48535371 864.75598505 428.5030241 867.43554783 C417.44116132 882.16487408 405.27657685 896.03884078 392.70810223 909.49218845 C391.14746633 911.1693197 389.59732576 912.85560079 388.0498991 914.54492283 C380.82077653 922.43441965 373.57178918 930.1681792 365.44443035 937.15039158 C363.23124164 939.08741116 361.06908513 941.07331588 358.91366863 943.0742197 C352.86852387 948.67919335 346.65970548 954.0089877 340.1905241 959.12304783 C339.54873211 959.63206638 338.90694012 960.14108494 338.24569988 960.6655283 C262.22961668 1020.80761307 172.77621726 1060.95303043 26.8155241 1079.43554783 C25.7412315 1079.49482456 25.7412315 1079.49482456 24.64523602 1079.55529881 C-48.85939922 1083.45356237 -123.41578896 1071.54767572 -227.8094759 1031.12304783 C-228.82477375 1030.66430271 -229.8400716 1030.20555759 -230.88613605 1029.73291111 C-245.66427652 1022.99528246 -259.79180298 1015.31275489 -273.8094759 1007.12304783 C-274.66106281 1006.63223728 -275.51264973 1006.14142673 -276.3900423 1005.63574314 C-318.10492347 981.5823059 -355.37499978 950.50618317 -389.44631672 916.66143894 C-390.58794558 915.52786778 -391.73104921 914.39577956 -392.87576008 913.26532078 C-399.25943892 906.95279086 -405.30192981 900.58579893 -410.86953449 893.53051853 C-412.83936162 891.0859596 -414.91477874 888.78970608 -417.0594759 886.49804783 C-423.47835045 879.4417589 -429.10492991 871.75740379 -434.8094759 864.12304783 C-435.30270344 863.46578709 -435.79593098 862.80852634 -436.3041048 862.13134861 C-491.24730114 788.78002576 -525.82347555 702.10971947 -538.8094759 605.12304783 C-539.05939289 603.22256687 -539.05939289 603.22256687 -539.31435871 601.28369236 C-544.48977328 559.78929712 -544.60147985 514.53163803 -538.8094759 473.12304783 C-538.63786945 471.83914158 -538.46626301 470.55523533 -538.28945637 469.23242283 C-528.50167294 396.70568969 -504.93792929 326.508623 -419.8094759 197.12304783 C-419.38553547 196.61274021 -418.96159504 196.10243259 -418.52480793 195.57666111 C-412.28630877 188.07997725 -405.86340847 180.79229785 -399.22305012 173.6499033 C-397.77618833 172.08709265 -396.34053278 170.51461434 -394.90713215 168.93945408 C-385.98974188 159.16136865 -376.91553199 149.41479747 -366.8094759 140.84570408 C-364.37558459 138.74932504 -362.03813165 136.55907402 -359.6844759 134.37304783 C-354.98531791 130.08336004 -350.10451781 126.12267556 -345.07265949 122.23169041 C-341.23736326 119.26291802 -337.50443503 116.20446113 -333.8094759 113.06054783 C-311.1262384 94.05809953 -284.89405569 78.27503832 -258.91543293 64.26416111 C-256.91187134 63.17853082 -254.92055069 62.0731662 -252.93056965 60.96289158 C-176.44237868 18.78303326 -86.80695404 -0.12958012 0 0 Z " fill="#FBAF3F" transform="translate(1501.8094758987427,960.8769521713257)"/>
<path d="M0 0 C1.28537533 0.00040031 1.28537533 0.00040031 2.59671783 0.00080872 C29.77615118 0.01140977 56.87690161 0.2739462 84 2.1875 C84.91547607 2.25066406 85.83095215 2.31382812 86.77416992 2.37890625 C181.73242298 8.96504603 276.14225155 25.07606922 390.99133301 60.53509521 C392.94737868 61.17040886 394.90463545 61.80183814 396.86230469 62.43212891 C471.05966427 86.38948181 544.18265397 117.60631647 612.2734375 155.66601562 C615.20782413 157.30347063 618.15046247 158.92547854 621.09375 160.546875 C641.05728068 171.58507921 660.44621934 183.48251422 679.68945312 195.72412109 C682.03166231 197.20755325 684.38171255 198.67774191 686.734375 200.14453125 C698.03249796 207.20021193 709.06656993 214.58029654 720 222.1875 C720.82145508 222.75758789 721.64291016 223.32767578 722.48925781 223.91503906 C739.9640378 236.05049116 757.21468226 248.39289861 773.93066406 261.55908203 C775.84308827 263.06402179 777.76019408 264.56268739 779.6796875 266.05859375 C791.4467934 275.24066461 803.05457663 284.61968485 814.41381836 294.30249023 C817.77888283 297.16832743 821.18647553 299.9729173 824.625 302.75 C829.38950808 306.62679769 833.9364389 310.70221532 838.45703125 314.859375 C840.57067054 316.79444262 842.70659848 318.68958297 844.875 320.5625 C848.63750594 323.83698216 852.32400998 327.19160428 856 330.5625 C856.58894043 331.0992334 857.17788086 331.6359668 857.78466797 332.18896484 C859.20935918 333.50085923 860.60739284 334.84159613 862 336.1875 C862 336.5175 862 336.8475 862 337.1875 C861.23343183 337.18790018 860.46686366 337.18830037 859.67706615 337.18871268 C776.11656336 337.23244038 692.55606302 337.2798907 608.99557495 337.34648132 C607.1197004 337.34797467 607.1197004 337.34797467 605.20592939 337.34949819 C578.01951283 337.3711628 550.83309684 337.39348594 523.64668138 337.41648628 C510.98201006 337.42719709 498.31733864 337.43778664 485.65266715 337.44828469 C483.64253586 337.44995161 481.63240457 337.45162188 479.62227329 337.45329228 C448.72503155 337.47893826 417.82779045 337.50209995 386.93054199 337.51794434 C386.26788739 337.5182842 385.60523279 337.51862406 384.92249775 337.51897423 C373.57496467 337.52477791 362.22743147 337.5303399 350.87989826 337.53588969 C306.73563708 337.55753054 262.59139323 337.58895865 218.44714796 337.63249113 C212.19483615 337.63865229 205.94252423 337.64470295 199.69021225 337.65068626 C197.84461363 337.65245759 197.84461363 337.65245759 195.96173019 337.65426469 C176.25170361 337.67289852 156.54168543 337.68138514 136.83165112 337.68596124 C116.95828956 337.69079602 97.08495967 337.70659653 77.2116151 337.73316566 C66.46744449 337.74723609 55.72332162 337.75670543 44.97914124 337.75250816 C-17.56964414 337.66133037 -17.56964414 337.66133037 -80 341.1875 C-80.85632699 341.26135025 -81.71265397 341.3352005 -82.59493026 341.41128863 C-175.20816272 349.47107656 -266.62541012 372.00079362 -368 414.1875 C-369.28739578 414.75871447 -370.57483271 415.32983621 -371.86230469 415.90087891 C-398.14503315 427.5800841 -423.9028626 440.11588602 -449 454.1875 C-450.08539062 454.79464844 -451.17078125 455.40179687 -452.2890625 456.02734375 C-493.93790387 479.3901814 -533.20389893 506.03294792 -571 535.1875 C-571.68642578 535.71649902 -572.37285156 536.24549805 -573.08007812 536.79052734 C-581.02806358 542.93085559 -588.76346968 549.28388388 -596.39111328 555.81689453 C-598.00135491 557.18865424 -599.62174135 558.54733425 -601.24609375 559.90234375 C-608.03171058 565.57262824 -614.59202188 571.43373127 -621.05859375 577.46484375 C-623.45443617 579.69519146 -625.89453258 581.86364367 -628.375 584 C-631.44860441 586.65564565 -634.3032643 589.4671597 -637.14624023 592.36621094 C-638.84268765 594.03294315 -640.58493016 595.56555328 -642.40234375 597.09765625 C-647.96305937 601.93434034 -653.12834857 607.16633357 -658.32739258 612.38452148 C-660.058947 614.121436 -661.79578359 615.85293889 -663.53320312 617.58398438 C-668.68388269 622.73152682 -673.76170715 627.88389755 -678.48999023 633.42797852 C-681.06821611 636.43222652 -683.79260587 639.30004844 -686.5 642.1875 C-691.0921054 647.11276196 -695.61866412 652.07284731 -700 657.1875 C-700.8559375 658.17621094 -701.711875 659.16492188 -702.59375 660.18359375 C-714.65678224 674.14479751 -726.33155059 688.37141511 -737.43408203 703.10986328 C-738.97069187 705.1486144 -740.51405977 707.18209215 -742.05859375 709.21484375 C-767.55405355 742.86008481 -790.21627468 778.46958527 -811 815.1875 C-811.49790039 816.06325684 -811.99580078 816.93901367 -812.50878906 817.84130859 C-849.93942852 883.97570806 -878.77901964 955.68578551 -898 1029.1875 C-898.20455811 1029.96768494 -898.40911621 1030.74786987 -898.61987305 1031.55169678 C-910.6997317 1077.78555886 -919.33837884 1124.83598578 -924.25 1172.375 C-924.3272229 1173.11688568 -924.4044458 1173.85877136 -924.48400879 1174.62313843 C-924.95715599 1179.23683931 -925.38160174 1183.85322996 -925.77114868 1188.47473145 C-925.9313121 1190.37328417 -926.09606122 1192.27145307 -926.26425171 1194.16931152 C-928.13728373 1215.70804687 -928.36179607 1237.16827715 -928.31805801 1258.77425003 C-928.31242205 1261.60160632 -928.30959825 1264.42895661 -928.30697632 1267.25631714 C-928.26869753 1295.66351175 -927.76289714 1323.89460752 -925 1352.1875 C-924.91514343 1353.0819281 -924.83028687 1353.9763562 -924.74285889 1354.89788818 C-918.55375083 1420.05811688 -905.99655758 1484.8224786 -886 1547.1875 C-885.56191886 1548.56491188 -885.12393369 1549.94235428 -884.68603516 1551.31982422 C-874.27723271 1583.95066374 -862.31026095 1616.0572866 -848 1647.1875 C-847.50322754 1648.2796582 -847.00645508 1649.37181641 -846.49462891 1650.49707031 C-835.15251965 1675.42641222 -823.15246293 1699.9084397 -809.45800781 1723.63427734 C-807.69538738 1726.72092913 -805.99694414 1729.83950395 -804.30151367 1732.96337891 C-797.73330197 1745.03122418 -790.36549854 1756.59519759 -783 1768.1875 C-782.14175645 1769.54676727 -781.28365933 1770.90612703 -780.42578125 1772.265625 C-773.04036677 1783.91476731 -765.1497343 1795.23506242 -757.14453125 1806.46484375 C-756 1808.1875 -756 1808.1875 -756 1809.1875 C-885.03 1809.1875 -1014.06 1809.1875 -1147 1809.1875 C-1161.87652682 1775.71531466 -1161.87652682 1775.71531466 -1167.3125 1762.9375 C-1167.66484711 1762.10941833 -1168.01719421 1761.28133667 -1168.38021851 1760.42816162 C-1176.40058975 1741.53079355 -1183.86829095 1722.43666624 -1191 1703.1875 C-1191.26814514 1702.46427551 -1191.53629028 1701.74105103 -1191.81256104 1700.99591064 C-1205.1180009 1665.01981538 -1216.17144388 1628.25430304 -1226 1591.1875 C-1226.18844482 1590.47968384 -1226.37688965 1589.77186768 -1226.57104492 1589.04260254 C-1247.34410031 1510.89570837 -1259.47704747 1430.51541243 -1264.6875 1349.875 C-1264.74843842 1348.93899963 -1264.80937683 1348.00299927 -1264.87216187 1347.03863525 C-1266.57920876 1320.43478068 -1267.20999983 1293.84191835 -1267.1875 1267.1875 C-1267.18723312 1266.47281555 -1267.18696625 1265.7581311 -1267.18669128 1265.02178955 C-1267.17488775 1239.70020529 -1266.70379403 1214.4588677 -1265 1189.1875 C-1264.93447937 1188.21115601 -1264.86895874 1187.23481201 -1264.80145264 1186.22888184 C-1257.82415592 1083.48199994 -1239.2978451 982.15940446 -1186 820.1875 C-1185.71616455 819.45629944 -1185.4323291 818.72509888 -1185.13989258 817.97174072 C-1164.68188057 765.38606378 -1142.02270011 713.4901324 -1114.62011719 664.11572266 C-1112.90426263 661.01446293 -1111.20539218 657.90426595 -1109.5078125 654.79296875 C-1101.43779827 640.05942232 -1092.97358878 625.62867488 -1084.161026 611.33027649 C-1081.78739976 607.47786561 -1079.44006107 603.61054503 -1077.10546875 599.734375 C-1066.66644341 582.47018962 -1055.45749188 565.7862658 -1044 549.1875 C-1043.31067383 548.1886377 -1042.62134766 547.18977539 -1041.91113281 546.16064453 C-1037.97772333 540.47647428 -1034.00458341 534.82171271 -1030 529.1875 C-1029.46503906 528.43259277 -1028.93007812 527.67768555 -1028.37890625 526.89990234 C-1020.72022326 516.11208719 -1012.75043526 505.60677867 -1004.57666016 495.20507812 C-1002.35743784 492.36524331 -1000.18069673 489.49452565 -998 486.625 C-992.37826052 479.29914179 -986.47726698 472.20778344 -980.58203125 465.1015625 C-978.51650814 462.60253454 -976.47744217 460.08242856 -974.4375 457.5625 C-966.56517295 447.93099372 -958.32807294 438.59593686 -949.9765625 429.37890625 C-948.13043439 427.33211204 -946.31006716 425.26618443 -944.5 423.1875 C-932.94648896 409.95347827 -921.05166419 396.97189941 -908.47558594 384.69995117 C-905.74022287 382.01210847 -903.15720489 379.25269597 -900.65234375 376.34765625 C-896.81231837 371.91069202 -892.72155076 367.76158964 -888.5625 363.625 C-887.85029297 362.90892578 -887.13808594 362.19285156 -886.40429688 361.45507812 C-882.33084402 357.38902482 -878.15168156 353.51927761 -873.79272461 349.76196289 C-871.4168506 347.67534823 -869.20533124 345.45243479 -867 343.1875 C-863.55563057 339.70659938 -860.04675105 336.41246381 -856.328125 333.23046875 C-853.1573247 330.44803828 -850.08306864 327.56643483 -847 324.6875 C-842.07387104 320.09648185 -837.11658857 315.56656229 -832 311.1875 C-830.95430999 310.2878965 -829.90874931 309.38814267 -828.86328125 308.48828125 C-825.84697474 305.89466343 -822.82448107 303.30837534 -819.79931641 300.72509766 C-818.6391774 299.73370614 -817.47992905 298.74127096 -816.32177734 297.74755859 C-809.21923468 291.6538634 -801.99308466 285.76129526 -794.609375 280.01171875 C-791.47894433 277.57152238 -788.38106787 275.09298717 -785.28955078 272.60375977 C-778.30237131 266.97891101 -771.21921845 261.51262667 -764 256.1875 C-762.55464534 255.11724443 -761.10933623 254.04692735 -759.6640625 252.9765625 C-743.62704479 241.11531512 -727.53287633 229.35089292 -711 218.1875 C-710.0291748 217.53120605 -709.05834961 216.87491211 -708.05810547 216.19873047 C-692.24192644 205.52742897 -676.27796135 195.14593883 -660 185.1875 C-658.99791504 184.57310059 -657.99583008 183.95870117 -656.96337891 183.32568359 C-640.88661611 173.49545298 -624.54373753 164.20684104 -608 155.1875 C-606.89881836 154.58470215 -605.79763672 153.9819043 -604.66308594 153.36083984 C-532.61952668 113.99803222 -456.59800184 81.71126016 -244 23.1875 C-243.33337341 23.05490784 -242.66674683 22.92231567 -241.97991943 22.78570557 C-190.39198554 12.52803172 -138.11825639 6.27104807 -85.6875 2.4375 C-84.88445435 2.37815277 -84.08140869 2.31880554 -83.25402832 2.25765991 C-55.5267579 0.24413023 -27.78546763 -0.01945779 0 0 Z " fill="#5170FF" transform="translate(1499,231.8125)"/>
</svg>
